<?xml version="1.0" standalone="no"?>
<!DOCTYPE svg PUBLIC "-//W3C//DTD SVG 20010904//EN"
 "http://www.w3.org/TR/2001/REC-SVG-20010904/DTD/svg10.dtd">
<svg version="1.0" xmlns="http://www.w3.org/2000/svg"
 width="1637.000000pt" height="1637.000000pt" viewBox="0 0 1637.000000 1637.000000"
 preserveAspectRatio="xMidYMid meet">
<metadata>
Created by potrace 1.16, written by Peter Selinger 2001-2019
</metadata>
<g transform="translate(0.000000,1637.000000) scale(0.100000,-0.100000)"
fill="#000000" stroke="none">
<path d="M5032 8683 c-161 -1352 -295 -2468 -298 -2480 l-4 -23 509 0 509 0 6
28 c3 15 110 905 237 1977 128 1073 232 1951 233 1951 1 1 813 3 1806 5 l1805
3 100 -21 c283 -60 477 -162 666 -352 198 -197 308 -412 354 -689 14 -82 16
-140 12 -270 -8 -252 -51 -413 -174 -653 -249 -487 -751 -844 -1275 -908 -51
-6 -581 -12 -1370 -14 -708 -1 -1290 -5 -1293 -8 -5 -6 -125 -989 -125 -1028
l0 -22 1343 4 c1170 3 1355 5 1447 19 427 66 810 211 1160 442 178 117 314
229 475 391 220 220 382 442 521 710 219 422 313 824 301 1275 -10 362 -72
619 -222 925 -118 242 -241 411 -431 595 -334 323 -754 521 -1237 585 -103 13
-406 15 -2440 15 l-2322 0 -293 -2457z"/>
<path d="M7085 9188 c-7 -34 -115 -953 -115 -982 l0 -26 1238 0 c1023 0 1248
3 1303 14 184 39 362 193 429 373 102 273 -33 559 -295 628 -52 13 -216 15
-1307 15 l-1248 0 -5 -22z"/>
<path d="M9849 5870 c-64 -11 -100 -32 -147 -85 -103 -117 -104 -323 -3 -392
68 -46 198 -39 276 15 81 56 137 204 121 315 -17 112 -114 169 -247 147z m90
-105 c72 -37 65 -179 -13 -261 -39 -40 -47 -44 -90 -44 -83 0 -121 67 -96 168
29 121 115 181 199 137z"/>
<path d="M6717 5633 c-20 -126 -37 -234 -37 -241 0 -11 30 -13 144 -10 142 3
145 4 188 33 31 22 52 49 78 100 30 60 35 81 38 155 3 76 1 89 -20 120 -39 59
-75 70 -223 70 l-131 0 -37 -227z m277 116 c22 -17 26 -29 26 -68 0 -75 -25
-145 -65 -180 -31 -27 -43 -31 -95 -31 -37 0 -60 4 -60 11 0 15 40 261 45 277
7 22 118 16 149 -9z"/>
<path d="M7405 5848 c-5 -16 -75 -443 -75 -457 0 -7 22 -11 53 -11 l54 0 37
223 c20 122 36 230 36 240 0 14 -9 17 -50 17 -32 0 -52 -5 -55 -12z"/>
<path d="M7750 5853 c0 -5 18 -111 40 -238 22 -126 40 -231 40 -232 0 -2 24
-3 54 -3 l54 0 122 240 121 240 -59 0 -59 0 -74 -165 c-41 -90 -77 -165 -80
-165 -3 0 -14 74 -24 165 l-18 165 -59 0 c-32 0 -58 -3 -58 -7z"/>
<path d="M8405 5848 c-5 -16 -75 -443 -75 -457 0 -7 23 -11 54 -11 l54 0 13
85 12 85 86 0 c70 0 93 4 125 23 48 27 76 78 82 149 10 111 -33 138 -219 138
-93 0 -129 -3 -132 -12z m229 -97 c13 -14 16 -28 11 -50 -9 -44 -39 -61 -108
-61 -59 0 -59 0 -53 28 3 15 8 44 12 65 l6 37 58 0 c44 0 61 -5 74 -19z"/>
<path d="M9025 5848 c-5 -16 -75 -443 -75 -457 0 -7 22 -11 54 -11 l53 0 13
90 13 90 66 0 c36 0 72 -4 80 -9 10 -6 12 -29 10 -87 l-4 -79 63 -3 c65 -3 68
-2 53 26 -5 10 -5 41 0 76 10 58 -1 116 -21 116 -4 0 7 15 25 33 68 68 65 173
-6 209 -28 15 -61 18 -177 18 -105 0 -144 -3 -147 -12z m246 -88 c19 -11 26
-54 11 -76 -15 -23 -53 -34 -117 -34 l-67 0 6 30 c3 17 9 44 12 60 6 30 6 30
70 30 36 0 74 -5 85 -10z"/>
</g>
</svg>
